<?xml version="1.0" encoding="UTF-8"?>
<svg width="77px" height="80px" viewBox="0 0 77 80" version="1.1" xmlns="http://www.w3.org/2000/svg" xmlns:xlink="http://www.w3.org/1999/xlink">
    <!-- Generator: Sketch 55 (78076) - https://sketchapp.com -->
    <title>Combined Shape</title>
    <desc>Created with Sketch.</desc>
    <g id="Desktop" stroke="none" stroke-width="1" fill="none" fill-rule="evenodd">
        <g id="[Desktop]-CPC---Campaigns---Details---StopConfirm" transform="translate(-922.000000, -136.000000)" fill="#FFEAEF">
            <g id="Confirmation-Copy" transform="translate(896.000000, 112.000000)">
                <path d="M63.5753268,72.5031 C62.3318847,72.5031 61.3202202,73.5201 61.3202202,74.7691 C61.3202202,76.0191 62.3318847,77.0361 63.5753268,77.0361 C64.8187688,77.0361 65.8304333,76.0191 65.8304333,74.7691 C65.8304333,73.5201 64.8187688,72.5031 63.5753268,72.5031 Z M62.3617273,79.3151 C60.3662515,78.7761 58.8930214,76.9431 58.8930214,74.7691 C58.8930214,72.5961 60.3662515,70.7621 62.3617273,70.2241 L62.3617273,60.8801 C62.3617273,60.2061 62.9048628,59.6601 63.5753268,59.6601 C64.2457907,59.6601 64.7889262,60.2061 64.7889262,60.8801 L64.7889262,70.2241 C66.784402,70.7621 68.2576322,72.5961 68.2576322,74.7691 C68.2576322,76.9431 66.784402,78.7761 64.7889262,79.3151 L64.7889262,83.5451 C64.7889262,84.2181 64.2457907,84.7651 63.5753268,84.7651 C62.9048628,84.7651 62.3617273,84.2181 62.3617273,83.5451 L62.3617273,79.3151 Z M37.0725033,76.048 C37.3828665,82.638 40.0836226,88.609 44.3212731,93.104 L48.6434777,88.758 C49.1179752,88.281 49.8869198,88.281 50.3604225,88.758 C50.83492,89.235 50.83492,90.007 50.3604225,90.484 L46.07005,94.797 C50.4608926,98.68 56.1349674,101.131 62.3611305,101.414 L62.3611305,95.748 C62.3611305,95.074 62.9052607,94.528 63.5757247,94.528 C64.2451939,94.528 64.7893241,95.074 64.7893241,95.748 L64.7893241,101.414 C71.044335,101.13 76.7412891,98.657 81.1410845,94.742 L76.9054235,90.484 C76.430926,90.007 76.430926,89.235 76.9054235,88.758 C77.379921,88.281 78.1478708,88.281 78.6223683,88.758 L82.8858824,93.043 C87.1026431,88.542 89.7844989,82.572 90.0799407,75.987 C89.961565,76.027 89.8352313,76.048 89.7039239,76.048 L82.709811,76.048 C82.039347,76.048 81.4952168,75.502 81.4952168,74.828 C81.4952168,74.153 82.039347,73.607 82.709811,73.607 L89.7039239,73.607 C89.8372208,73.607 89.9655441,73.63 90.0849145,73.669 C89.8222995,67.2 87.2588194,61.318 83.1952508,56.83 L79.1495877,60.898 C78.9128363,61.136 78.6014784,61.255 78.2911153,61.255 C77.9797574,61.255 77.6693943,61.135 77.4316482,60.898 C76.9591402,60.421 76.9591402,59.648 77.4316482,59.172 L81.4802955,55.102 C77.8872453,51.794 73.3879746,49.465 68.4052536,48.54 C68.298815,48.52 68.1913816,48.501 68.0849429,48.483 C67.9924308,48.467 67.9009135,48.451 67.8084014,48.437 C67.6751044,48.415 67.5418074,48.394 67.4075157,48.375 L67.2185125,48.348 C67.0593519,48.326 66.8982018,48.305 66.7380465,48.286 C66.7042249,48.282 66.671398,48.278 66.6375764,48.274 C66.4505627,48.253 66.2655385,48.233 66.0785248,48.215 C66.0755406,48.215 66.0735511,48.215 66.0715615,48.215 C65.645807,48.174 65.2170682,48.145 64.7893241,48.126 L64.7893241,53.907 C64.7893241,54.581 64.2451939,55.128 63.5757247,55.128 C62.9052607,55.128 62.3611305,54.581 62.3611305,53.907 L62.3611305,48.126 C61.9333864,48.145 61.5056423,48.174 61.0778983,48.215 C61.0759087,48.215 61.0739192,48.215 61.0719297,48.215 C60.8859108,48.233 60.6988971,48.253 60.5128782,48.274 L60.4124081,48.286 C60.2522527,48.305 60.0920974,48.326 59.9319421,48.348 L59.7429389,48.375 C59.6086471,48.394 59.4753501,48.415 59.3430479,48.437 C59.2495411,48.451 59.157029,48.467 59.0645169,48.483 C58.9580782,48.501 58.8526344,48.52 58.7461957,48.54 C53.76248,49.465 49.2632092,51.794 45.6701591,55.102 L49.7178116,59.172 C50.1923091,59.648 50.1923091,60.421 49.7178116,60.898 C49.4810603,61.136 49.1706971,61.255 48.860334,61.255 C48.5489761,61.255 48.238613,61.135 48.0008669,60.898 L43.9552038,56.83 C39.904567,61.303 37.3440711,67.163 37.0685243,73.607 L42.7644837,73.607 C43.4349476,73.607 43.9780831,74.153 43.9780831,74.828 C43.9780831,75.502 43.4349476,76.048 42.7644837,76.048 L37.0725033,76.048 Z M47.3572612,46.239 L39.9672364,52.573 L42.1646472,55.165 C42.4093566,54.896 42.6590398,54.632 42.9136967,54.372 C42.9554764,54.312 43.001235,54.254 43.0549517,54.199 C43.1096632,54.145 43.1673589,54.098 43.2280389,54.056 C45.1837245,52.119 47.4139622,50.455 49.821266,49.144 L47.3572612,46.239 Z M59.5867625,45.931 C59.6106366,45.927 59.6345107,45.925 59.6583848,45.922 C60.2731426,45.838 60.8938688,45.774 61.5205636,45.729 C61.5752751,45.725 61.6299865,45.722 61.6837032,45.718 C61.9353759,45.702 62.1870486,45.689 62.439716,45.679 C62.5153173,45.676 62.5899238,45.673 62.6645303,45.671 C62.9669354,45.661 63.2703353,45.655 63.5757247,45.655 C63.8801193,45.655 64.1825244,45.661 64.4849295,45.671 C64.5605308,45.673 64.636132,45.676 64.7127281,45.679 C64.963406,45.689 65.2130891,45.702 65.4617776,45.718 C65.5184785,45.722 65.5751795,45.725 65.6328752,45.729 C66.2585752,45.774 66.8783067,45.838 67.4920697,45.922 C67.5159438,45.925 67.5398179,45.927 67.563692,45.931 L67.563692,41.703 L67.563692,37.635 L59.5867625,37.635 L59.5867625,41.703 L59.5867625,45.931 Z M55.9449695,40.483 L57.1585689,40.483 L57.1585689,36.415 C57.1585689,36.078 57.2948501,35.773 57.5136959,35.552 C57.7335365,35.331 58.0369364,35.194 58.3731631,35.194 L68.7782862,35.194 C69.4487502,35.194 69.9918857,35.741 69.9918857,36.415 L69.9918857,40.483 L70.8593108,40.483 C72.2927508,40.483 73.4605916,39.31 73.4605916,37.868 L73.4605916,36.552 C73.4605916,30.977 68.9483891,26.441 63.4016428,26.441 C57.8558912,26.441 53.3426939,30.977 53.3426939,36.552 L53.3426939,37.868 C53.3426939,39.31 54.5105347,40.483 55.9449695,40.483 Z M79.5902636,46.239 L77.189923,49.069 C79.648954,50.391 81.9269399,52.08 83.9184367,54.053 C83.9801114,54.096 84.0407914,54.144 84.0955028,54.199 C84.151209,54.256 84.1999519,54.317 84.2427263,54.38 C84.4585879,54.6 84.6714652,54.823 84.8803634,55.05 L86.9802884,52.573 L79.5902636,46.239 Z M98.3174956,101.501 C98.9879596,101.501 99.5320898,102.048 99.5320898,102.722 C99.5320898,103.396 98.9879596,103.942 98.3174956,103.942 L63.9447783,103.942 C63.8283921,103.98 63.7040479,104 63.5757247,104 C63.4464067,104 63.3220625,103.98 63.2056763,103.942 L28.9483503,103.942 C28.2778864,103.942 27.7347509,103.396 27.7347509,102.722 C27.7347509,102.048 28.2778864,101.501 28.9483503,101.501 L52.1062151,101.501 C41.9537595,97.082 34.7955122,86.985 34.6194408,75.215 C34.5786559,75.093 34.5557766,74.963 34.5557766,74.828 C34.5557766,74.694 34.5776612,74.565 34.6174513,74.444 C34.6890736,67.918 36.9063795,61.902 40.5939312,57.074 L37.3311393,53.228 C37.122241,52.981 37.0197814,52.662 37.045645,52.339 C37.0705138,52.016 37.2227111,51.717 37.4674205,51.507 L46.7056976,43.59 C47.2160062,43.152 47.9819665,43.214 48.4166739,43.727 L52.0823411,48.048 C53.7037895,47.34 55.4008392,46.777 57.1585689,46.376 L57.1585689,42.923 L55.9449695,42.923 C53.1715963,42.923 50.915495,40.656 50.915495,37.868 L50.915495,36.552 C50.915495,29.631 56.5169528,24 63.4016428,24 C70.2873275,24 75.8887853,29.631 75.8887853,36.552 L75.8887853,37.868 C75.8887853,40.656 73.6316892,42.923 70.8593108,42.923 L69.9918857,42.923 L69.9918857,46.376 C71.6968934,46.765 73.3442054,47.306 74.92089,47.983 L78.5308509,43.727 C78.9655583,43.214 79.7315186,43.152 80.2408324,43.59 L89.4801043,51.507 C89.7248137,51.717 89.877011,52.016 89.9018798,52.339 C89.9277434,52.662 89.824289,52.981 89.6163855,53.228 L86.4600322,56.948 C90.2679492,61.877 92.5369822,68.061 92.5369822,74.769 C92.5369822,86.73 85.3250183,97.027 75.0442394,101.501 L98.3174956,101.501 Z M28.4281936,36.4733 C28.4281936,37.7233 29.4398581,38.7393 30.6823054,38.7393 C31.9257475,38.7393 32.9374119,37.7233 32.9374119,36.4733 C32.9374119,35.2233 31.9257475,34.2063 30.6823054,34.2063 C29.4398581,34.2063 28.4281936,35.2233 28.4281936,36.4733 Z M35.3646108,36.4733 C35.3646108,39.0683 33.2646859,41.1803 30.6823054,41.1803 C28.1009197,41.1803 26,39.0683 26,36.4733 C26,33.8773 28.1009197,31.7663 30.6823054,31.7663 C33.2646859,31.7663 35.3646108,33.8773 35.3646108,36.4733 Z M96.583839,35.2526 C98.7832393,35.2526 100.572801,33.4536 100.572801,31.2426 C100.572801,29.0316 98.7832393,27.2326 96.583839,27.2326 C94.3834439,27.2326 92.5948769,29.0316 92.5948769,31.2426 C92.5948769,33.4536 94.3834439,35.2526 96.583839,35.2526 Z M96.583839,24.7926 C100.122178,24.7926 103,27.6866 103,31.2426 C103,34.7996 100.122178,37.6936 96.583839,37.6936 C93.0445055,37.6936 90.1666832,34.7996 90.1666832,31.2426 C90.1666832,27.6866 93.0445055,24.7926 96.583839,24.7926 Z" id="Combined-Shape"></path>
            </g>
        </g>
    </g>
</svg>