<?xml version="1.0" encoding="UTF-8"?>
<svg width="32px" height="32px" viewBox="0 0 32 32" version="1.1" xmlns="http://www.w3.org/2000/svg" xmlns:xlink="http://www.w3.org/1999/xlink">
    <!-- Generator: Sketch 55 (78076) - https://sketchapp.com -->
    <title>Element/Button/Dropdown</title>
    <desc>Created with Sketch.</desc>
    <g id="Desktop" stroke="none" stroke-width="1" fill="none" fill-rule="evenodd">
        <g id="[Desktop]-CPC---Balance---Alert" transform="translate(-456.000000, -32.000000)">
            <g id="Stacked-Group" transform="translate(424.000000, 32.000000)">
                <g id="Element/Button/Dropdown" transform="translate(32.000000, 0.000000)">
                    <g id="Element/Button/Selector">
                        <circle id="div" stroke="#DF0036" fill="#DF0036" cx="16" cy="16" r="15.5"></circle>
                        <g id="Icon/Important" transform="translate(8.000000, 8.000000)" fill="#FFFFFF" fill-rule="nonzero">
                            <path d="M10.2861958,12.6806617 L10.2861958,15.1059249 C10.2861958,15.2935937 10.2176242,15.4560003 10.0804811,15.5931428 C9.94333858,15.7302859 9.78093261,15.7988569 9.59326316,15.7988569 L6.82153402,15.7988569 C6.63386457,15.7988569 6.4714586,15.7302859 6.33431611,15.5931428 C6.19717298,15.4560003 6.12860141,15.2935937 6.12860141,15.1059249 L6.12860141,12.6806617 C6.12860141,12.4929923 6.19717298,12.3305863 6.33431611,12.1934438 C6.4714586,12.0563007 6.63386457,11.9877291 6.82153402,11.9877291 L9.59326316,11.9877291 C9.78093261,11.9877291 9.94333858,12.0563007 10.0804811,12.1934438 C10.2176242,12.3305863 10.2861958,12.4929923 10.2861958,12.6806617 Z M10.6110077,1.24727792 L10.3078498,9.56246598 C10.3006316,9.75013543 10.2266468,9.9125414 10.0858949,10.0496839 C9.94514297,10.186827 9.78093261,10.2553986 9.59326316,10.2553986 L6.82153402,10.2553986 C6.63386457,10.2553986 6.4696542,10.186827 6.32890228,10.0496839 C6.18815035,9.9125414 6.1141656,9.75013543 6.10694737,9.56246598 L5.80378947,1.24727792 C5.79657124,1.05960911 5.85972962,0.897203146 5.99326332,0.760060012 C6.12679702,0.622917524 6.28739859,0.554345957 6.47506739,0.554345957 L9.93972914,0.554345957 C10.1273986,0.554345957 10.2880002,0.622917524 10.4215339,0.760060012 C10.5550676,0.897203146 10.6182253,1.05960911 10.6110077,1.24727792 Z" id="Shape"></path>
                        </g>
                    </g>
                </g>
            </g>
        </g>
    </g>
</svg>