<svg xmlns="http://www.w3.org/2000/svg" width="24" height="24" viewBox="0 0 24 24">
    <path fill="#ffffff" fill-rule="nonzero" d="M12.806 20.061A3.12 3.12 0 0 1 9.98 22.08a3.1 3.1 0 0 1-2.787-2.019A1.005 1.005 0 0 1 7 20.08H2a1 1 0 0 1 0-2h5c.048 0 .095.003.14.01a3.001 3.001 0 0 1 5.72 0c.045-.007.092-.01.14-.01h9a1 1 0 0 1 0 2h-9c-.066 0-.131-.006-.194-.019zm6-7a3.001 3.001 0 0 1-5.613 0 1.005 1.005 0 0 1-.193.019H2a1 1 0 0 1 0-2h11c.048 0 .095.003.14.01a3.001 3.001 0 0 1 5.72 0c.045-.007.092-.01.14-.01h3a1 1 0 0 1 0 2h-3c-.066 0-.13-.006-.193-.019zm-8-7A3.12 3.12 0 0 1 7.98 8.08 3.1 3.1 0 0 1 5.194 6.06 1.005 1.005 0 0 1 5 6.08H2a1 1 0 1 1 0-2h3c.048 0 .095.003.14.01a3.001 3.001 0 0 1 5.72 0c.045-.007.092-.01.14-.01h11a1 1 0 0 1 0 2H11c-.066 0-.131-.006-.194-.019zM8 3a2 2 0 0 0-2 1.997c.008 1.122.897 2.04 1.98 2.083A2.1 2.1 0 0 0 10 4.998 2 2 0 0 0 8 3zm10 9a2 2 0 1 0-4 0 2 2 0 0 0 4 0zm-1 .08a1 1 0 1 1-2 0 1 1 0 0 1 2 0zM10 17a2 2 0 0 0-2 1.997c.008 1.122.897 2.04 1.98 2.083A2.1 2.1 0 0 0 12 18.998 2 2 0 0 0 10 17z"/>
</svg>
