<?xml version="1.0" encoding="UTF-8"?>
<svg width="64px" height="64px" viewBox="0 0 64 64" version="1.1" xmlns="http://www.w3.org/2000/svg" xmlns:xlink="http://www.w3.org/1999/xlink">
    <!-- Generator: Sketch 55 (78076) - https://sketchapp.com -->
    <title>Combined Shape</title>
    <desc>Created with Sketch.</desc>
    <g id="Desktop" stroke="none" stroke-width="1" fill="none" fill-rule="evenodd">
        <g id="[Desktop]-CPC---Footer---Security" transform="translate(-552.000000, -176.000000)" fill="#FFFFFF" fill-rule="nonzero">
            <g id="Group" transform="translate(408.000000, 112.000000)">
                <g id="Element/Box-Div-2">
                    <g id="Confirmation-Copy" transform="translate(112.000000, 32.000000)">
                        <path d="M77.1655141,49.0243749 L80.4456913,45.7437793 C80.2014049,45.2334054 80.0724998,44.6705392 80.0724998,44.0875 C80.0724998,43.0625 80.4718748,42.0975 81.1962499,41.3725 C82.6931249,39.8749999 85.1293748,39.87375 86.6274999,41.3725 C87.3531249,42.0975 87.7525,43.0625 87.7525,44.0875 C87.7525,45.11375 87.353125,46.0775 86.6274999,46.8025001 C86.6274999,46.8025001 86.6274999,46.8025001 86.6268749,46.8037501 C85.87875,47.55125 84.895625,47.9250001 83.9118749,47.9250001 C83.3453224,47.9250001 82.7787698,47.8008794 82.2570717,47.5523988 L78.9755211,50.8343679 C81.8058653,54.0499426 83.6193682,58.1811132 83.90815,62.72 L88.5393077,62.72 C89.0675688,61.2299699 90.4911028,60.16 92.16,60.16 C94.2775,60.16 96,61.8825 96,64 C96,66.1175 94.2775,67.84 92.16,67.84 C90.4911028,67.84 89.0675688,66.7700301 88.5393077,65.28 L83.90815,65.28 C83.6193682,69.8188868 81.8058654,73.9500573 78.9755212,77.1656321 L82.2564963,80.4470257 C83.6834241,79.7663999 85.4466774,80.0171701 86.6274999,81.1974999 C87.3525,81.9212499 87.7525,82.8862499 87.7525,83.9125 C87.7525,84.9375 87.353125,85.9025 86.6274999,86.6275 C85.87875,87.37625 84.895625,87.75 83.9118749,87.75 C82.92875,87.75 81.945625,87.37625 81.1968749,86.6275 C81.1968749,86.6275 81.1968749,86.6275 81.1962499,86.6275 C80.4718748,85.9025 80.0724998,84.9375 80.0724998,83.9125 C80.0724998,83.3294608 80.2014049,82.7665945 80.4456914,82.2562206 L77.1655141,78.975625 C73.9499563,81.8059097 69.8188313,83.6193717 65.28,83.90815 L65.28,88.5393077 C66.7700301,89.0675688 67.84,90.4911028 67.84,92.16 C67.84,94.2775 66.1175,96 64,96 C61.8825,96 60.16,94.2775 60.16,92.16 C60.16,90.4911028 61.2299699,89.0675688 62.72,88.5393077 L62.72,83.90815 C58.1812974,83.6193799 54.0502779,81.8060125 50.8347593,78.9758656 L47.5547548,82.2558701 C47.7990474,82.7663177 47.9281252,83.3295262 47.9281252,83.9124998 C47.9281252,84.9374999 47.5287502,85.9024998 46.8031251,86.6274999 C46.0781251,87.3525 45.11375,87.7525 44.0881251,87.7525 C43.0625001,87.7525 42.0981251,87.3525 41.3725001,86.6274999 C40.6475,85.9024998 40.2481251,84.9374999 40.2481251,83.9124998 C40.2481251,82.8862499 40.6475,81.9224998 41.3725001,81.1974998 C41.3731251,81.1974998 41.3731251,81.1974998 41.3731251,81.1974998 C41.3731251,81.1974998 41.3731251,81.1974998 41.3737501,81.1962497 C42.5097567,80.0602432 44.3078981,79.8150114 45.7312727,80.4593522 L49.0247194,77.1659055 C46.1942374,73.9502915 44.38064,69.8190154 44.09185,65.28 L39.4606923,65.28 C38.9324312,66.7700301 37.5088972,67.84 35.84,67.84 C33.7225,67.84 32,66.1175 32,64 C32,61.8825 33.7225,60.16 35.84,60.16 C37.5088972,60.16 38.9324312,61.2299699 39.4606923,62.72 L44.09185,62.72 C44.38064,58.1809846 46.1942374,54.0497085 49.0247195,50.8340945 L45.7445616,47.5539366 C45.2340697,47.7983139 44.6709882,47.9275 44.0881251,47.9275 C43.0625001,47.9275 42.0981251,47.5275 41.3725001,46.8025 C40.6481251,46.07875 40.2481251,45.11375 40.2481251,44.0874999 C40.2481251,43.0624998 40.6475,42.0974999 41.3731251,41.3724998 C42.8231251,39.9224998 45.3531251,39.9224998 46.8031251,41.3724998 L46.8037501,41.3724998 C47.5287502,42.0974999 47.9281252,43.0624998 47.9281252,44.0874999 C47.9281252,44.6703556 47.7990996,45.2334542 47.554674,45.744049 L50.8347593,49.0241343 C54.0502779,46.1939875 58.1812974,44.3806201 62.72,44.09185 L62.72,39.4606923 C61.2299699,38.9324312 60.16,37.5088972 60.16,35.84 C60.16,33.7225 61.8825,32 64,32 C66.1175,32 67.84,33.7225 67.84,35.84 C67.84,37.5088972 66.7700301,38.9324312 65.28,39.4606923 L65.28,44.09185 C69.8188312,44.3806283 73.9499562,46.1940903 77.1655141,49.0243749 Z M83.0055854,44.991212 C83.0060149,44.9916416 83.0064448,44.992071 83.006875,44.9925001 C83.504375,45.4887501 84.3175,45.4925001 84.8175,44.9925001 C84.8175,44.9925001 84.8175,44.9925001 84.8181251,44.99125 C85.0593751,44.75 85.1925001,44.43 85.1925001,44.0875 C85.1925001,43.74625 85.0593751,43.4250001 84.8175,43.1825 C84.5681251,42.9325 84.24,42.80875 83.9125,42.80875 C83.5843749,42.80875 83.25625,42.9325 83.006875,43.1825 C82.765625,43.42375 82.6325,43.74625 82.6325,44.0875 C82.6325,44.4293908 82.764529,44.7501071 83.0055854,44.991212 C83.0060155,44.9916409 83.0064454,44.9920702 83.006875,44.9924998 C83.506875,45.4924998 83.506875,46.3024998 83.006875,46.8024998 L82.2570717,47.5523988 Z M83.0054931,83.0088803 C82.7644954,83.2499747 82.6325,83.5706527 82.6325,83.9125 C82.6325,84.25375 82.765625,84.57625 83.006875,84.8175 C83.505625,85.31625 84.3175,85.3175 84.8175,84.8175 C85.059375,84.5750001 85.1925001,84.25375 85.1925001,83.9125 C85.1925001,83.57 85.0593751,83.25 84.8181251,83.00875 C84.3185719,82.5091967 83.5070769,82.5075025 83.0082128,83.0061607 C83.007762,83.0066122 83.0073186,83.0070562 83.0068749,83.0074999 C83.0064144,83.0079603 83.0059538,83.0084203 83.0054928,83.0088799 Z M56.509375,61.598011 L56.509375,56.88 C56.509375,52.7475 59.8712499,49.38625 64.003125,49.38625 C66.00375,49.38625 67.884375,50.1649999 69.2981251,51.57875 C70.7131251,53.0012499 71.490625,54.8825 71.490625,56.88 L71.490625,61.598011 C73.1472328,63.4062973 74.159375,65.8141242 74.159375,68.45375 C74.159375,74.05625 69.6018749,78.61375 64,78.61375 C58.3981251,78.61375 53.840625,74.05625 53.840625,68.45375 C53.840625,65.8141241 54.8527672,63.4062972 56.509375,61.598011 Z M59.069375,59.5736594 C60.53036,58.7593059 62.211981,58.2950001 64,58.2950001 C65.788019,58.2950001 67.46964,58.7593059 68.930625,59.5736595 L68.930625,56.88 C68.930625,55.56375 68.4175,54.32375 67.485625,53.38625 C66.5574999,52.45875 65.32,51.94625 64.003125,51.94625 C61.2825,51.94625 59.069375,54.16 59.069375,56.88 L59.069375,59.5736594 Z M64,60.8550001 C59.81,60.8550001 56.400625,64.26375 56.400625,68.45375 C56.400625,72.6450001 59.81,76.05375 64,76.05375 C68.19,76.05375 71.599375,72.6450001 71.599375,68.45375 C71.599375,64.26375 68.19,60.8550001 64,60.8550001 Z M64,72.29375 C61.8825,72.29375 60.16,70.57125 60.16,68.45375 C60.16,66.33625 61.8825,64.61375 64,64.61375 C66.1175,64.61375 67.84,66.33625 67.84,68.45375 C67.84,70.57125 66.1175,72.29375 64,72.29375 Z M64,67.17375 C63.294375,67.17375 62.72,67.7475 62.72,68.45375 C62.72,69.16 63.294375,69.73375 64,69.73375 C64.705625,69.73375 65.28,69.16 65.28,68.45375 C65.28,67.7475 64.705625,67.17375 64,67.17375 Z M64,34.56 C63.294375,34.56 62.72,35.13375 62.72,35.84 C62.72,36.54625 63.294375,37.12 64,37.12 C64.705625,37.12 65.28,36.54625 65.28,35.84 C65.28,35.13375 64.705625,34.56 64,34.56 Z M44.0881251,42.8075 C43.7462501,42.8075 43.4250001,42.94 43.18375,43.1825001 C42.94125,43.4250001 42.8081251,43.7462501 42.8081251,44.0875002 C42.8081251,44.4300001 42.94125,44.7500001 43.1825001,44.9912502 C43.6675002,45.4787502 44.5100001,45.4775002 44.9925001,44.9925002 C45.2350001,44.7500003 45.3681251,44.4300003 45.3681251,44.0875002 C45.3681251,43.7462501 45.2350001,43.4250002 44.993125,43.1825001 C44.993125,43.1825001 44.993125,43.1825001 44.9925,43.1825001 C44.75125,42.94 44.43,42.8075 44.0881251,42.8075 Z M35.84,62.72 C35.134375,62.72 34.56,63.29375 34.56,64 C34.56,64.70625 35.134375,65.28 35.84,65.28 C36.545625,65.28 37.12,64.70625 37.12,64 C37.12,63.29375 36.545625,62.72 35.84,62.72 Z M44.0881251,82.6325 C43.7462501,82.6325 43.4250001,82.7649999 43.18375,83.0075 C43.183125,83.0075 43.183125,83.0075 43.1825,83.0087501 C42.9412499,83.2500001 42.8081249,83.5700001 42.8081249,83.9125001 C42.8081249,84.2537501 42.9412499,84.5750001 43.183125,84.8175002 C43.666875,85.3025002 44.51,85.3025002 44.9925,84.8175002 C45.2349999,84.5750002 45.3681249,84.2537501 45.3681249,83.9125001 C45.3681249,83.5700001 45.2349999,83.2500001 44.9937499,83.0087501 C44.75125,82.7650001 44.43,82.6325 44.0881251,82.6325 Z M64,90.88 C63.294375,90.88 62.72,91.45375 62.72,92.16 C62.72,92.86625 63.294375,93.44 64,93.44 C64.705625,93.44 65.28,92.86625 65.28,92.16 C65.28,91.45375 64.705625,90.88 64,90.88 Z M92.16,62.72 C91.454375,62.72 90.88,63.29375 90.88,64 C90.88,64.70625 91.454375,65.28 92.16,65.28 C92.865625,65.28 93.44,64.70625 93.44,64 C93.44,63.29375 92.865625,62.72 92.16,62.72 Z M64,46.61125 C54.4118749,46.61125 46.61125,54.41125 46.61125,64 C46.61125,73.58875 54.4118749,81.38875 64,81.38875 C73.5881251,81.38875 81.38875,73.58875 81.38875,64 C81.38875,54.41125 73.5881251,46.61125 64,46.61125 Z" id="Combined-Shape"></path>
                    </g>
                </g>
            </g>
        </g>
    </g>
</svg>