<svg xmlns="http://www.w3.org/2000/svg" width="77" height="77" viewBox="0 0 77 77">
    <path fill="#E2E4F4" fill-rule="nonzero" d="M76.19 6.35V28.57c0 .86-.314 1.604-.942 2.233-.628.628-1.372.942-2.232.942H50.794c-1.39 0-2.365-.661-2.927-1.984-.562-1.29-.33-2.43.695-3.423l6.845-6.845c-4.894-4.53-10.665-6.796-17.312-6.796-3.439 0-6.721.67-9.846 2.01-3.125 1.339-5.828 3.15-8.11 5.43-2.282 2.283-4.092 4.986-5.432 8.111a24.738 24.738 0 0 0-2.009 9.846c0 3.44.67 6.721 2.01 9.846 1.339 3.125 3.15 5.829 5.43 8.11 2.283 2.282 4.986 4.093 8.111 5.432a24.738 24.738 0 0 0 9.846 2.01c3.935 0 7.656-.86 11.161-2.58 3.505-1.72 6.465-4.15 8.879-7.292.231-.33.612-.53 1.14-.595.497 0 .91.149 1.24.446l6.797 6.845c.297.265.454.604.47 1.017a1.63 1.63 0 0 1-.371 1.116 37.241 37.241 0 0 1-13.096 10.144c-5.125 2.398-10.532 3.596-16.22 3.596-5.158 0-10.086-1.008-14.782-3.025-4.695-2.018-8.746-4.73-12.152-8.135-3.406-3.406-6.118-7.457-8.135-12.153C1.009 48.181 0 43.254 0 38.095c0-5.158 1.009-10.086 3.026-14.782 2.017-4.695 4.729-8.746 8.135-12.152 3.406-3.406 7.457-6.118 12.152-8.135C28.01 1.009 32.937 0 38.095 0c4.861 0 9.565.918 14.112 2.753a38.505 38.505 0 0 1 12.128 7.763l6.449-6.399c.959-1.025 2.116-1.257 3.472-.694 1.29.562 1.934 1.537 1.934 2.926z"/>
</svg>
