<svg xmlns="http://www.w3.org/2000/svg" width="24" height="24" viewBox="0 0 24 24">
    <path fill="#101F51" fill-rule="nonzero" d="M20.35 10.641a7.538 7.538 0 0 1-3.396.725 7.534 7.534 0 0 1-3.394-.725c-1.635-.849-1.635-2.019 0-2.87a7.532 7.532 0 0 1 3.38-.734 7.52 7.52 0 0 1 3.392.725c.76.404 1.228.912 1.228 1.443v.136h.006c-.06.483-.523.94-1.216 1.3zm0 2.426a7.528 7.528 0 0 1-3.422.707c-.28 0-.552-.01-.818-.034a7.888 7.888 0 0 0-2.738-.78c-.508-.292-1.054-.757-1.054-1.369v-.54c1.222.973 3.096 1.326 4.621 1.326 1.525 0 3.4-.35 4.621-1.317v.242l-.038.03c.017.05.03.101.038.152v.29h.006c-.09.582-.725 1.036-1.216 1.293zm1.216.532l-.038.028c.017.05.03.101.038.153v.29c-.09.583-.725 1.036-1.216 1.293a6.886 6.886 0 0 1-2.458.676l.018-.012a2.122 2.122 0 0 0-.463-1.236c1.421-.069 3.027-.439 4.12-1.305v.113zm0 2.29l-.038.028a.99.99 0 0 1 .038.154v.288c-.09.584-.725 1.037-1.216 1.294a6.913 6.913 0 0 1-2.458.676l.006-.012v-1.26c1.268-.12 2.683-.496 3.668-1.275v.107zm-4.682.34c-.072.483-.523.94-1.216 1.3a7.517 7.517 0 0 1-3.405.725 7.52 7.52 0 0 1-3.393-.725c-.757-.396-1.228-.904-1.228-1.444 0-.54.468-1.04 1.228-1.444a7.526 7.526 0 0 1 3.393-.708 7.55 7.55 0 0 1 3.394.725c.756.396 1.227.904 1.227 1.444v.127zm0 1.961l-.037.03c.016.05.03.1.037.152v.29l-.017.002c-.09.583-.725 1.037-1.216 1.294a7.525 7.525 0 0 1-3.388.722 7.525 7.525 0 0 1-3.393-.73c-.543-.28-1.228-.78-1.228-1.465v-.534c.236.187.49.35.757.488a8.549 8.549 0 0 0 3.864.84 8.552 8.552 0 0 0 3.876-.855c.263-.135.512-.294.745-.476v.242zm0 2.308l-.037.03c.016.05.03.1.037.152v.188l-.009-.012c-.03.627-.707 1.115-1.224 1.384a7.545 7.545 0 0 1-3.388.736 7.53 7.53 0 0 1-3.393-.716c-.543-.28-1.228-.78-1.228-1.465v-.416c.236.186.49.35.757.486a8.562 8.562 0 0 0 3.864.84 8.56 8.56 0 0 0 3.876-.843c.263-.135.512-.295.745-.477v.113zm-9.678-5.883c-1.349.084-2.842-.13-3.97-.707-.544-.28-1.228-.78-1.228-1.465v-.404c1.221.973 3.096 1.326 4.621 1.326 1.525 0 3.4-.35 4.62-1.318v.11l-.037.03c.016.05.03.1.037.152v.29c-.019.12-.059.236-.118.343l-.014-.003a7.887 7.887 0 0 0-2.738.78c-.44.216-.837.51-1.173.866zm-.589 1.48v.926A7.551 7.551 0 0 1 3.25 16.3c-.543-.289-1.238-.78-1.227-1.465v-.487c1.2.961 3.036 1.325 4.641 1.322a1.955 1.955 0 0 0-.046.425zm0 1.951v1.103a7.527 7.527 0 0 1-3.368-.725c-.543-.28-1.227-.78-1.227-1.464v-.242c1.19.95 3.015 1.325 4.595 1.325v.003zM2.04 10.164v-.4c1.222.975 3.103 1.325 4.622 1.325 1.52 0 3.387-.35 4.62-1.317v.106l-.037.03a.99.99 0 0 1 .037.152v.29c-.089.577-.724 1.04-1.216 1.293a7.52 7.52 0 0 1-3.393.725 7.544 7.544 0 0 1-3.423-.736c-.543-.289-1.238-.78-1.227-1.465l.017-.003zm9.231-2.408v.29c-.09.582-.725 1.035-1.216 1.292a7.522 7.522 0 0 1-3.393.725 7.52 7.52 0 0 1-3.394-.725c-.543-.28-1.228-.78-1.228-1.464l-.01-.014v-.407c1.22.973 3.095 1.325 4.62 1.325s3.4-.349 4.621-1.317v.113l-.038.03c.017.05.03.1.038.152zM2.022 5.03c1.222.973 3.111 1.325 4.621 1.325 1.511 0 3.388-.335 4.638-1.29v.242l-.037.03c.016.05.03.1.037.152v.26l-.032.005c-.089.584-.724 1.037-1.215 1.294a7.511 7.511 0 0 1-3.39.722 7.53 7.53 0 0 1-3.395-.736c-.543-.28-1.227-.78-1.227-1.464v-.54zM3.25 1.748a7.539 7.539 0 0 1 3.394-.724 7.534 7.534 0 0 1 3.411.71c.76.405 1.227.913 1.227 1.444v.14l-.029.002c-.072.482-.525.938-1.218 1.302a7.538 7.538 0 0 1-3.39.722 7.524 7.524 0 0 1-3.395-.722c-.759-.404-1.227-.918-1.227-1.444 0-.525.471-1.034 1.227-1.43zm19.333 9.68V9.404c.122-1.179-.808-2.042-1.767-2.542a8.562 8.562 0 0 0-3.864-.84 8.566 8.566 0 0 0-3.865.84c-.288.148-.56.326-.81.532V5.801a2.015 2.015 0 0 0 0-.396V3.383c.12-1.178-.81-2.042-1.769-2.54A8.56 8.56 0 0 0 6.643 0 8.563 8.563 0 0 0 2.78.842C1.68 1.413 1 2.24 1 3.178v13.814c0 .944.68 1.782 1.78 2.342a8.552 8.552 0 0 0 3.854.841v.866c.1.85.754 1.591 1.765 2.117a8.549 8.549 0 0 0 3.864.84 8.56 8.56 0 0 0 3.85-.846c1.1-.572 1.78-1.398 1.78-2.342a2.201 2.201 0 0 0 0-.199v-1.26a8.002 8.002 0 0 0 2.922-.79c.98-.518 1.64-1.23 1.767-2.069v-.078a1.872 1.872 0 0 0 0-.396v-1.903a1.863 1.863 0 0 0 0-.395v-1.898a1.863 1.863 0 0 0 0-.395z"/>
</svg>
