<svg xmlns="http://www.w3.org/2000/svg" width="23" height="24" viewBox="0 0 23 24">
    <path fill="#00a7db" fill-rule="nonzero" d="M1.714 22.286h18.857V8.57H1.714v13.715zM6.857 6V2.143a.417.417 0 0 0-.12-.308.417.417 0 0 0-.308-.12H5.57a.417.417 0 0 0-.308.12.417.417 0 0 0-.12.308V6c0 .125.04.228.12.308.08.08.183.12.308.12h.858c.125 0 .227-.04.308-.12.08-.08.12-.183.12-.308zm10.286 0V2.143a.417.417 0 0 0-.12-.308.417.417 0 0 0-.309-.12h-.857a.417.417 0 0 0-.308.12.417.417 0 0 0-.12.308V6c0 .125.04.228.12.308.08.08.183.12.308.12h.857c.125 0 .228-.04.308-.12.08-.08.12-.183.12-.308zm5.143-.857v17.143c0 .464-.17.866-.51 1.205-.338.34-.74.509-1.205.509H1.714c-.464 0-.866-.17-1.205-.509A1.647 1.647 0 0 1 0 22.286V5.143c0-.464.17-.866.509-1.205.34-.34.741-.51 1.205-.51H3.43V2.144c0-.59.21-1.094.629-1.514C4.478.21 4.982 0 5.571 0h.858c.589 0 1.093.21 1.513.63.42.42.63.924.63 1.513v1.286h5.142V2.143c0-.59.21-1.094.63-1.514.42-.42.924-.629 1.513-.629h.857c.59 0 1.094.21 1.514.63.42.42.63.924.63 1.513v1.286h1.713c.465 0 .866.17 1.206.509.34.339.509.74.509 1.205z"/>
</svg>
