<svg xmlns="http://www.w3.org/2000/svg" width="24" height="24" viewBox="0 0 24 24">
    <path fill="#ffffff" fill-rule="nonzero" d="M17.604 8.933c-.186.184-.37.37-.554.554l-1.253 1.253-1.269 1.267-1.148 1.148-.893.893-.505.505c-.12.123-.248.208-.437.218-.158.01-.316.002-.473.004l-1.344.01a.539.539 0 0 1-.531-.531l.002-.18c.005-.543-.007-1.09.014-1.635.009-.216.113-.333.246-.466l.277-.276.986-.987 1.38-1.38 1.535-1.535 1.416-1.415.376.375.375.376.105.104.944.945.376.375c.072.073.145.146.22.218.05.055.102.107.155.16zm2.212-2.635a.656.656 0 0 1-.004.105c0 .009 0 .017-.002.026-.001.018-.005.034-.007.052l-.005.026-.007.034a.943.943 0 0 1-.018.067l-.007.021a1.356 1.356 0 0 1-.051.12c-.007.013-.014.028-.022.04a1.103 1.103 0 0 1-.093.136v.002a.465.465 0 0 1-.04.044l-.02.022-.151.15-.24.24c-.203.205-.586.588-.792.793l-.375-.375c-.126-.126-.252-.25-.376-.376 0-.002-.002-.002-.002-.002l-.02-.02c-.343-.343-.688-.685-1.03-1.029h-.004l-.005-.001v-.004h.009c-.124-.124-.257-.246-.381-.37-.036-.046-.087-.09-.131-.135l-.238-.241 1.173-1.173.014-.014a.97.97 0 0 1 .394-.236l.026-.007a.902.902 0 0 1 .702.103l.007.005.059.041c.095.073.175.158.26.243l.27.269c.192.195.387.388.58.581l.123.122c.02.02.037.04.056.057a1.846 1.846 0 0 1 .132.135c.005.005.008.012.014.018l.009.01c.003.006.007.009.01.014a.26.26 0 0 0 .016.023l.013.018c.003.007.008.013.012.02a1.237 1.237 0 0 1 .066.122c.005.012.008.023.014.035l.014.041a1610.183 1610.183 0 0 1 .018.062l.005.023a.309.309 0 0 1 .009.04c.002.006.002.013.003.02l.01.06.001.022a.086.086 0 0 1 .002.021zm-.126 4.444c.193.193.31.478.31.751v6.384c0 .351-.09.643-.232.959a1.806 1.806 0 0 1-.42.572 2.287 2.287 0 0 1-.828.491c-.209.074-.44.1-.66.1H6.135a2.178 2.178 0 0 1-1.474-.6 2.294 2.294 0 0 1-.31-.38 1.28 1.28 0 0 1-.112-.206c-.065-.149-.138-.298-.168-.46a2.846 2.846 0 0 1-.055-.476c-.004-.278.002-.554.002-.832V7.24l-.002-1.083c.002-.76.41-1.524 1.097-1.882.328-.171.668-.26 1.04-.262.06 0 .122.004.182.004h6.184c.289 0 .544.117.753.306.21.192.3.473.312.748.01.264-.128.567-.312.751a1.103 1.103 0 0 1-.751.312l-.012.002c-.264.003-.528.003-.792.003H6.72c-.184 0-.378-.016-.565-.007a.991.991 0 0 0 .002-.004c-.004.003-.011.003-.011.004v.01-.003c0 .002-.002.002-.002.002 0-.002-.002-.002-.002-.002-.002.002-.002.004-.002.006l.002-.004v.002c-.002.464.002.93.002 1.394v10.056c0 .092-.004.186-.002.28 0 .002-.002.002-.002.002v-.002.002c-.003-.008-.008-.015-.012-.022l.002.01c-.002 0-.006-.004-.007-.006l.005.01c-.004-.001-.005-.003-.009-.005l.007.009a.014.014 0 0 0-.009-.004l.01.008h-.011l.017.007v.001h.006-.002l-.004-.001-.001-.002v-.002-.003h.012v-.002h.004c.466.002.93 0 1.396 0h10.05c.09 0 .184.002.276 0h.007c.01-.036.016-.071.023-.107l.004-.023a1.127 1.127 0 0 1-.028.13c.001-.243-.002-.484-.002-.727v-5.654c0-.287.12-.544.312-.751.191-.21.478-.3.753-.312.265-.012.567.128.75.312z"/>
</svg>
