<?xml version="1.0" encoding="UTF-8"?>
<svg width="64px" height="64px" viewBox="0 0 64 64" version="1.1" xmlns="http://www.w3.org/2000/svg" xmlns:xlink="http://www.w3.org/1999/xlink">
    <!-- Generator: Sketch 55 (78076) - https://sketchapp.com -->
    <title>Combined Shape</title>
    <desc>Created with Sketch.</desc>
    <g id="Desktop" stroke="none" stroke-width="1" fill="none" fill-rule="evenodd">
        <g id="[Desktop]-CPC---Footer---Security" transform="translate(-928.000000, -176.000000)" fill="#FFFFFF" fill-rule="nonzero">
            <g id="Group-Copy" transform="translate(792.000000, 112.000000)">
                <g id="Element/Box-Div-2">
                    <g id="Confirmation-Copy" transform="translate(104.000000, 32.000000)">
                        <path d="M75.2494942,72.26875 C75.298542,72.6958096 75.32375,73.1300157 75.32375,73.57 L75.32375,77.123223 C77.6490078,77.2121829 79.5137499,79.1315188 79.5137499,81.4787501 L79.5137499,91.64125 C79.51375,94.0450001 77.5581251,96 75.1550001,96 L52.8318749,96 C50.42875,96 48.4737499,94.0449999 48.4737499,91.64125 L48.4737499,81.4787501 C48.4737499,79.131519 50.3378956,77.2121834 52.663125,77.123223 L52.663125,73.57 C52.663125,73.1300157 52.6883361,72.6958096 52.7373896,72.26875 L43.673125,72.26875 C37.23625,72.26875 32,67.02625 32,60.5825 C32,55.2381249 35.57125,50.6674999 40.64,49.31875 C40.674375,42.9106249 45.8975,37.70875 52.313125,37.70875 C54.179375,37.70875 55.995625,38.14875 57.6349999,38.99 C60.534375,34.6481251 65.42625,32 70.694375,32 C79.340625,32 86.374375,39.03375 86.374375,47.68 C86.374375,48.1418749 86.350625,48.6125 86.30375,49.089375 C91.840625,50.03625 96,54.84125 96,60.5825 C96,67.02625 90.7575,72.26875 84.313125,72.26875 L75.2494942,72.26875 Z M74.6462512,69.70875 L84.313125,69.70875 C89.345625,69.70875 93.44,65.6150001 93.44,60.5825 C93.44,55.7343749 89.63875,51.7418749 84.785625,51.4925 C84.416875,51.47375 84.0743749,51.296875 83.845625,51.006875 C83.6174999,50.716875 83.5249999,50.3418749 83.593125,49.979375 C83.7418749,49.1825 83.814375,48.43 83.814375,47.68 C83.814375,40.445625 77.9287501,34.56 70.694375,34.56 C65.9181251,34.56 61.510625,37.16125 59.193125,41.349375 C59.02,41.6625 58.723125,41.88875 58.375625,41.973125 C58.0281249,42.0581251 57.6606249,41.9925 57.363125,41.794375 C55.86625,40.79625 54.12,40.2687501 52.313125,40.2687501 C47.2881249,40.2687501 43.2,44.3568751 43.2,49.3825001 C43.2,49.6793751 43.21125,49.954375 43.23375,50.2406252 C43.286875,50.9031251 42.82375,51.4962501 42.1681251,51.6050002 C37.759375,52.3381251 34.56,56.11375 34.56,60.5825 C34.56,65.6149999 38.6481251,69.70875 43.673125,69.70875 L53.3406993,69.70875 C54.9232201,65.3566293 59.101483,62.24 63.99375,62.24 C68.886017,62.24 73.0638967,65.3566293 74.6462512,69.70875 Z M65.27375,87.84 L65.27375,89.36 C65.27375,90.0675 64.700625,90.64 63.99375,90.64 C63.286875,90.64 62.71375,90.0675 62.71375,89.36 L62.71375,87.84 L62.11375,87.84 C61.406875,87.84 60.83375,87.2675 60.83375,86.56 C60.83375,85.8525 61.406875,85.28 62.11375,85.28 L65.87375,85.28 C66.580625,85.28 67.15375,85.8525 67.15375,86.56 C67.15375,87.2675 66.580625,87.84 65.87375,87.84 L65.27375,87.84 Z M52.8318749,79.68 C51.8406249,79.68 51.0337499,80.4875 51.0337499,81.47875 L51.0337499,91.6412499 C51.03375,92.6325 51.840625,93.44 52.8318749,93.44 L75.1549999,93.44 C76.1468749,93.44 76.9537499,92.6325 76.9537499,91.64125 L76.9537499,81.4787501 C76.9537499,80.4875 76.1468749,79.6800001 75.1549999,79.6800001 L52.8318749,79.6800001 Z M55.223125,77.12 L72.76375,77.12 L72.76375,73.57 C72.76375,68.73375 68.829375,64.8 63.99375,64.8 C59.1575,64.8 55.223125,68.73375 55.223125,73.57 L55.223125,77.12 Z" id="Combined-Shape"></path>
                    </g>
                </g>
            </g>
        </g>
    </g>
</svg>