<svg xmlns="http://www.w3.org/2000/svg" width="79" height="80" viewBox="0 0 79 80">
    <path fill="#F4FFF3" fill-rule="evenodd" d="M62.081 21.406c.68 0 1.232.549 1.232 1.226 0 .677-.551 1.226-1.23 1.226h-3.237c-.678 0-1.23-.55-1.23-1.226 0-.677.552-1.226 1.23-1.226h3.235zm-16.196-3.922a1.225 1.225 0 0 1-.432-1.68l.878-1.474a1.233 1.233 0 0 1 1.686-.429c.584.345.777 1.097.432 1.68l-.878 1.473a1.23 1.23 0 0 1-1.686.43zM42.072 7.366c-.68 0-1.23-.549-1.23-1.226V1.226c0-.677.55-1.226 1.23-1.226.68 0 1.23.549 1.23 1.226V6.14c0 .677-.55 1.226-1.23 1.226zm8.06 13.347a1.223 1.223 0 0 1-.627-2.281l2.412-1.42a1.233 1.233 0 0 1 1.686.432 1.223 1.223 0 0 1-.434 1.68l-2.412 1.42c-.196.114-.412.17-.625.17zm7.181-5.1a1.224 1.224 0 0 1-.588-2.304l4.55-2.458a1.232 1.232 0 0 1 1.668.493 1.222 1.222 0 0 1-.494 1.662l-4.55 2.458c-.187.1-.388.148-.586.148zm-15.241.459c-.68 0-1.23-.55-1.23-1.226V12.06c0-.676.55-1.225 1.23-1.225.68 0 1.23.549 1.23 1.225v2.785c0 .677-.55 1.226-1.23 1.226zm7.741-6.05a1.223 1.223 0 0 1-.4-1.686l1.59-2.566a1.232 1.232 0 0 1 1.693-.4c.578.356.758 1.11.401 1.687l-1.59 2.567a1.232 1.232 0 0 1-1.694.399zM32.647 9.64l-1.645-2.567a1.223 1.223 0 0 1 .376-1.693 1.234 1.234 0 0 1 1.7.374l1.644 2.567a1.223 1.223 0 0 1-1.036 1.885c-.407 0-.804-.2-1.04-.566zm40.456 49.315h.002a3.433 3.433 0 0 0 3.434-3.423 3.434 3.434 0 0 0-3.436-3.423H59.102c-.71 0-1.372.216-1.92.586a3.413 3.413 0 0 0 0 5.675 3.42 3.42 0 0 0 1.918.585h14.002zm3.436 5.875a3.434 3.434 0 0 0-3.436-3.423H59.102c-.71 0-1.372.216-1.92.585a3.417 3.417 0 0 0-1.1 4.468A3.441 3.441 0 0 0 59.1 68.25h14.005a3.433 3.433 0 0 0 3.434-3.422zm0 9.297a3.434 3.434 0 0 0-3.436-3.423H59.102a3.434 3.434 0 0 0-3.437 3.423 3.434 3.434 0 0 0 3.437 3.423h14a3.434 3.434 0 0 0 3.437-3.423zm-41.408 3.423h19.18c-.01-.013-.017-.027-.026-.04a5.904 5.904 0 0 1-.217-.325l-.006-.009a5.65 5.65 0 0 1-.196-.349l-.039-.076a6.23 6.23 0 0 1-.167-.361l-.018-.042a6.495 6.495 0 0 1-.154-.421 6.027 6.027 0 0 1-.2-.822c-.004-.019-.008-.038-.01-.057a5.437 5.437 0 0 1-.05-.405l-.007-.093a5.91 5.91 0 0 1-.008-.752c.002-.036.006-.071.009-.106.005-.073.01-.147.02-.219l.015-.123a6.325 6.325 0 0 1 .121-.638c.017-.07.037-.137.056-.206l.029-.1c.03-.097.062-.196.097-.292l.003-.008c.036-.097.074-.193.116-.287l.042-.093c.029-.064.058-.128.09-.19l.053-.106c.03-.058.06-.115.094-.171.019-.036.04-.071.06-.106a5.71 5.71 0 0 1 .103-.166l.063-.098c.039-.06.08-.117.121-.174l.056-.08c.124-.165.255-.324.396-.475.02-.023.043-.045.064-.068l.15-.155.082-.076c.048-.046.098-.091.149-.135.028-.026.058-.051.087-.076.051-.043.102-.085.156-.127l.055-.045c-.02-.014-.036-.03-.055-.044-.054-.042-.105-.085-.157-.128l-.085-.075a4.881 4.881 0 0 1-.151-.137l-.08-.075-.154-.158-.06-.063a6.068 6.068 0 0 1-.398-.48c-.018-.023-.034-.048-.052-.072a5.311 5.311 0 0 1-.185-.274c-.036-.057-.072-.113-.106-.171-.02-.034-.04-.067-.058-.101a4.311 4.311 0 0 1-.096-.177l-.052-.101a6.979 6.979 0 0 1-.092-.196l-.04-.087a5.752 5.752 0 0 1-.216-.59 4.929 4.929 0 0 1-.084-.306l-.029-.117a9.7 9.7 0 0 1-.04-.197c-.009-.041-.016-.082-.023-.123a6.034 6.034 0 0 1-.03-.201c-.005-.04-.011-.08-.015-.121a3.978 3.978 0 0 1-.02-.22l-.01-.105a7.197 7.197 0 0 1-.008-.33c0-.11.004-.22.009-.33l.009-.105c.005-.073.01-.147.02-.22l.015-.121a6.389 6.389 0 0 1 .052-.325l.041-.194.028-.12c.017-.068.037-.136.056-.204l.029-.101a7.39 7.39 0 0 1 .095-.287l.008-.02c.034-.094.072-.187.112-.28l.044-.096.088-.187.055-.108c.03-.057.06-.113.092-.17l.062-.106a5.653 5.653 0 0 1 .284-.435l.06-.082c.06-.082.123-.163.188-.242l.001-.001a5.62 5.62 0 0 1 .204-.232l.067-.07c.05-.051.099-.103.149-.152l.082-.078a4.68 4.68 0 0 1 .148-.134c.028-.026.058-.051.087-.076.051-.044.103-.086.156-.127.019-.015.036-.031.055-.045-.017-.013-.032-.027-.05-.04a7.061 7.061 0 0 1-.244-.204 3.626 3.626 0 0 1-.159-.145l-.071-.067a6.588 6.588 0 0 1-.166-.17l-.05-.053a5.58 5.58 0 0 1-.4-.482c-.017-.021-.03-.043-.047-.064a8.062 8.062 0 0 1-.132-.19c-.018-.03-.038-.058-.056-.087-.037-.06-.075-.118-.11-.178l-.054-.096a3.225 3.225 0 0 1-.1-.183 4.28 4.28 0 0 1-.049-.095c-.033-.067-.064-.135-.096-.204-.011-.027-.024-.053-.036-.08a5.73 5.73 0 0 1-.218-.593c-.01-.03-.017-.061-.026-.091a7.453 7.453 0 0 1-.059-.214l-.027-.114-.042-.2-.02-.121c-.012-.067-.022-.135-.032-.203l-.014-.12a4.014 4.014 0 0 1-.02-.221l-.01-.105a7.119 7.119 0 0 1-.008-.33c0-.11.004-.22.009-.327.002-.037.006-.072.009-.108.005-.073.01-.145.02-.218l.015-.124c.009-.066.02-.132.03-.197l.022-.126.04-.193.03-.121c.016-.068.035-.135.054-.202l.03-.104c.029-.093.059-.186.092-.277l.015-.038c.033-.092.07-.182.108-.27l.046-.101.085-.182.058-.112c.028-.055.058-.11.089-.164.02-.038.043-.074.064-.111.031-.054.065-.107.098-.16l.067-.104c.037-.055.076-.11.115-.164l.063-.09a7.536 7.536 0 0 1 .201-.255 7.73 7.73 0 0 1 .265-.293 6.38 6.38 0 0 1 .23-.228c.045-.044.091-.086.139-.128l.095-.082.146-.12c.02-.015.04-.033.06-.05-.016-.011-.031-.026-.048-.04a5.213 5.213 0 0 1-.167-.135l-.078-.067a4.39 4.39 0 0 1-.159-.145l-.071-.068a6.548 6.548 0 0 1-.166-.168l-.05-.054a5.735 5.735 0 0 1-.4-.482c-.017-.021-.03-.043-.047-.064a6.458 6.458 0 0 1-.132-.191l-.056-.086c-.037-.06-.075-.118-.11-.178l-.054-.096a4.097 4.097 0 0 1-.149-.278c-.033-.067-.064-.136-.096-.205l-.036-.08a5.712 5.712 0 0 1-.218-.592c-.01-.03-.017-.061-.026-.091l-.059-.215a19.295 19.295 0 0 1-.027-.113l-.042-.201-.02-.121a12.166 12.166 0 0 1-.032-.202l-.014-.12a4.05 4.05 0 0 1-.02-.222l-.01-.104a7.158 7.158 0 0 1-.008-.33c0-.142.008-.282.017-.422l.007-.093c.012-.137.027-.272.05-.405a6.31 6.31 0 0 1 .083-.419l.017-.077c.033-.13.07-.257.11-.382l.026-.078a5.79 5.79 0 0 1 .127-.341l.02-.046c.05-.122.106-.241.165-.36l.041-.08c.062-.116.126-.232.194-.344l.011-.016c.066-.11.138-.214.211-.317l.028-.042h-1.743c-.948 0-1.715-.19-2.337-.503-.335 4.892-1.876 11.377-7.218 15.152a1.23 1.23 0 0 1-1.717-.29 1.224 1.224 0 0 1 .292-1.71c5.893-4.165 6.38-12.631 6.224-16.817-.207-1.054-.208-2.052-.208-2.637V30.06c0-3.223-2.633-5.845-5.87-5.845h-1.003v11.79c0 1.82-.714 4.783-1.736 7.209-1.114 2.643-2.433 4.313-3.864 4.918v29.416zm-9.335 0h6.873v-29.16h-6.873v29.16zM76.54 46.234a3.434 3.434 0 0 0-3.436-3.423H59.102a3.441 3.441 0 0 0-3.367 2.734 3.457 3.457 0 0 0 0 1.378 3.408 3.408 0 0 0 .346.94 3.44 3.44 0 0 0 3.02 1.794h14.002a3.434 3.434 0 0 0 3.436-3.423zM79 55.53c0 1.89-.9 3.573-2.298 4.649A5.854 5.854 0 0 1 79 64.829c0 1.89-.9 3.573-2.298 4.648A5.857 5.857 0 0 1 79 74.126C79 77.365 76.355 80 73.103 80H1.23C.55 80 0 79.452 0 78.774c0-.676.551-1.225 1.23-1.225h22.106v-29.16H8.263c-.68 0-1.23-.55-1.23-1.226 0-.677.55-1.226 1.23-1.226H33.9c.636 0 1.756-1.135 2.825-3.671 1.003-2.38 1.544-5.001 1.544-6.26V22.992c0-.678.551-1.226 1.231-1.226h2.235c4.593 0 8.33 3.722 8.33 8.296v5.859c.043.302.152 1.184.21 2.446.405 1.803 1.34 1.993 2.293 1.993h20.534c3.253 0 5.898 2.636 5.898 5.875 0 1.89-.9 3.573-2.298 4.649A5.854 5.854 0 0 1 79 55.53zM14.77 71.15a1.406 1.406 0 1 0 2.813 0c0-.774-.632-1.402-1.407-1.402-.776 0-1.407.628-1.407 1.401zm5.273 0c0 2.123-1.735 3.852-3.867 3.852-2.134 0-3.869-1.729-3.869-3.853 0-2.125 1.735-3.853 3.869-3.853 2.132 0 3.867 1.728 3.867 3.853zm2.02-47.294c-.68 0-1.232-.549-1.232-1.226 0-.677.552-1.226 1.231-1.226h3.18c.68 0 1.23.55 1.23 1.226 0 .677-.55 1.226-1.23 1.226h-3.18zm14.51-6.802l-.878-1.474a1.224 1.224 0 0 1 .432-1.68 1.234 1.234 0 0 1 1.686.43l.877 1.474a1.223 1.223 0 0 1-1.058 1.85c-.42 0-.83-.214-1.06-.6zm-5.653 2.068a1.223 1.223 0 0 1-.434-1.68 1.235 1.235 0 0 1 1.687-.431l2.411 1.42a1.224 1.224 0 0 1-.627 2.281c-.213 0-.428-.054-.625-.17l-2.412-1.42zm-9.28-6.117a1.225 1.225 0 0 1-.496-1.662 1.232 1.232 0 0 1 1.669-.493l4.55 2.457c.598.323.82 1.067.496 1.662a1.231 1.231 0 0 1-1.669.494l-4.55-2.458z"/>
</svg>
