<?xml version="1.0" encoding="UTF-8"?>
<svg width="32px" height="32px" viewBox="0 0 32 32" version="1.1" xmlns="http://www.w3.org/2000/svg" xmlns:xlink="http://www.w3.org/1999/xlink">
    <!-- Generator: Sketch 55 (78076) - https://sketchapp.com -->
    <title>Icon</title>
    <desc>Created with Sketch.</desc>
    <g id="Desktop" stroke="none" stroke-width="1" fill="none" fill-rule="evenodd">
        <g id="[Desktop]-CPC---Admin---Feed" transform="translate(-624.000000, -40.000000)" fill-rule="nonzero">
            <g id="Group" transform="translate(424.000000, 24.000000)">
                <g id="Stacked-Group" transform="translate(184.000000, 0.000000)">
                    <g id="Event">
                        <g id="Icon" transform="translate(16.000000, 16.000000)">
                            <circle id="div" fill="#BBC5DE" cx="16" cy="16" r="16"></circle>
                            <g id="Icon/Product" transform="translate(8.000000, 8.000000)" fill="#101F51">
                                <path d="M15.7088975,2.47206648 L8.28844321,0.0382936288 C8.15228809,-0.0127645429 8.01613296,-0.0127645429 7.87997784,0.0382936288 L0.459523546,2.47206648 C0.187213296,2.55716343 0,2.81245429 0,3.10178393 L0,12.8538947 C0,13.1432244 0.187213296,13.3985152 0.459523546,13.4836122 L7.87997784,15.917385 C7.9480554,15.9344044 8.01613296,15.9514238 8.08421053,15.9514238 C8.15228809,15.9514238 8.22036565,15.9344044 8.28844321,15.917385 L15.7088975,13.4836122 C15.9812078,13.3985152 16.1684211,13.1432244 16.1684211,12.8538947 L16.1684211,3.10178393 C16.1684211,2.81245429 15.9812078,2.55716343 15.7088975,2.47206648 Z M8.08421053,1.3487867 L13.3942604,3.10178393 L8.08421053,4.83776177 L6.43332964,4.29314127 L7.5906482,3.86765651 C7.93103601,3.74852078 8.10122992,3.35707479 7.98209418,3.01668698 C7.86295845,2.67629917 7.47151247,2.50610526 7.13112465,2.625241 L4.40802216,3.61236565 L2.77416066,3.06774515 L8.08421053,1.3487867 Z M1.31049307,4.00381163 L3.71022715,4.7867036 L3.71022715,10.1988698 C3.71022715,10.556277 3.99955679,10.862626 4.37398338,10.862626 C4.74840997,10.862626 5.03773961,10.5732964 5.03773961,10.1988698 L5.03773961,5.22920776 L7.43747368,6.01209972 L7.43747368,14.3686205 L1.31049307,12.3603324 L1.31049307,4.00381163 Z M12.4581939,13.1602438 L12.4581939,9.73934626 C12.4581939,9.38193906 12.1688643,9.07559003 11.7944377,9.07559003 C11.4370305,9.07559003 11.1306814,9.36491967 11.1306814,9.73934626 L11.1306814,13.5857285 L8.73094737,14.3686205 L8.73094737,6.01209972 L14.8409086,4.00381163 L14.8409086,12.3603324 L12.4581939,13.1602438 Z" id="Shape"></path>
                            </g>
                        </g>
                    </g>
                </g>
            </g>
        </g>
    </g>
</svg>