<?xml version="1.0" encoding="UTF-8"?>
<svg width="64px" height="64px" viewBox="0 0 64 64" version="1.1" xmlns="http://www.w3.org/2000/svg" xmlns:xlink="http://www.w3.org/1999/xlink">
    <!-- Generator: Sketch 55 (78076) - https://sketchapp.com -->
    <title>Combined Shape</title>
    <desc>Created with Sketch.</desc>
    <g id="Desktop" stroke="none" stroke-width="1" fill="none" fill-rule="evenodd">
        <g id="[Desktop]-CPC---Footer---Security" transform="translate(-1304.000000, -180.000000)" fill="#FFFFFF" fill-rule="nonzero">
            <g id="Group-Copy-2" transform="translate(1160.000000, 112.000000)">
                <g id="Element/Box-Div-2">
                    <g id="Confirmation-Copy" transform="translate(112.000000, 32.000000)">
                        <path d="M89.1682397,74.4 L92.15375,74.4 C92.86,74.4 93.43375,73.82625 93.43375,73.12 L93.43375,56.48 L34.56,56.48 L34.56,73.12 C34.56,73.82625 35.13375,74.4 35.84,74.4 L67.2554798,74.4 L77.6575002,69.40625 C78.0075002,69.23875 78.4150002,69.23875 78.7650002,69.40625 L89.1682397,74.4 Z M90.1575,76.96 L90.1575,88.05375 C90.1575,96.3050001 82.4487501,99.4687501 78.37375,99.99 C78.32,99.99625 78.2650001,100 78.21125,100 C78.1575,100 78.1025001,99.99625 78.0487501,99.99 C73.97375,99.46875 66.2662501,96.30375 66.2662501,88.05375 L66.2662501,76.96 L35.84,76.96 C33.7225,76.96 32,75.2375 32,73.12 L32,39.84 C32,37.7225 33.7225,36 35.84,36 L92.15375,36 C94.27125,36 95.99375,37.7225 95.99375,39.84 L95.99375,46.1125542 C95.9978839,46.1544716 96,46.1969863 96,46.24 C96,46.2830137 95.9978839,46.3255284 95.99375,46.3674458 L95.99375,55.0725542 C95.9978839,55.1144716 96,55.1569863 96,55.2 C96,55.2430137 95.9978839,55.2855284 95.99375,55.3274458 L95.99375,73.12 C95.99375,75.2375 94.27125,76.96 92.15375,76.96 L90.1575,76.96 Z M93.43375,53.92 L93.43375,47.52 L34.56,47.52 L34.56,53.92 L93.43375,53.92 Z M93.43375,44.96 L93.43375,39.84 C93.43375,39.13375 92.86,38.56 92.15375,38.56 L35.84,38.56 C35.13375,38.56 34.56,39.13375 34.56,39.84 L34.56,44.96 L93.43375,44.96 Z M60.88,72.32 L38.2425,72.32 C37.5349999,72.32 36.9625,71.7475 36.9625,71.04 C36.9625,70.3325 37.5349999,69.76 38.2425,69.76 L60.88,69.76 C61.5875,69.76 62.16,70.3325 62.16,71.04 C62.16,71.7475 61.5875,72.32 60.88,72.32 Z M48.08125,67.2 L38.2425,67.2 C37.5349999,67.2 36.9625,66.6275 36.9625,65.92 C36.9625,65.2125 37.5349999,64.64 38.2425,64.64 L48.0812499,64.64 C48.78875,64.64 49.3612499,65.2125 49.3612499,65.92 C49.3612499,66.6275 48.78875,67.2 48.08125,67.2 Z M68.82625,76.4850001 L68.82625,88.05375 C68.82625,95.64625 76.90375,97.22125 78.20875,97.42625 C79.50875,97.21875 87.5974999,95.61625 87.5974999,88.05375 L87.5974999,76.4850001 L78.2112499,71.98 L68.82625,76.4850001 Z" id="Combined-Shape"></path>
                    </g>
                </g>
            </g>
        </g>
    </g>
</svg>