<?xml version="1.0" encoding="UTF-8"?>
<svg width="32px" height="32px" viewBox="0 0 32 32" version="1.1" xmlns="http://www.w3.org/2000/svg" xmlns:xlink="http://www.w3.org/1999/xlink">
    <!-- Generator: Sketch 55 (78076) - https://sketchapp.com -->
    <title>Icon</title>
    <desc>Created with Sketch.</desc>
    <g id="Desktop" stroke="none" stroke-width="1" fill="none" fill-rule="evenodd">
        <g id="[Desktop]-CPC---Admin---Feed" transform="translate(-624.000000, -424.000000)" fill-rule="nonzero">
            <g id="Group" transform="translate(424.000000, 24.000000)">
                <g id="Stacked-Group" transform="translate(184.000000, 0.000000)">
                    <g id="Event-Copy-2" transform="translate(0.000000, 384.000000)">
                        <g id="Icon" transform="translate(16.000000, 16.000000)">
                            <circle id="div" fill="#DF0036" cx="16" cy="16" r="16"></circle>
                            <g id="Icon/Balance" transform="translate(8.000000, 8.000000)" fill="#FFFFFF">
                                <path d="M13.7096084,7.16880842 C12.9948295,7.50767158 12.2113347,7.67474526 11.4217768,7.65722947 C10.6315453,7.67474526 9.84872421,7.50699789 9.13529263,7.16880842 C8.03381895,6.59685053 8.03381895,5.80864 9.13529263,5.23466105 C9.84535579,4.89579789 10.6248084,4.72670316 11.4116716,4.74085053 C12.2012295,4.72333474 12.9840505,4.89040842 13.6974821,5.22927158 C14.2094821,5.50144 14.5247663,5.84367158 14.5247663,6.20139789 L14.5247663,6.29301895 L14.5288084,6.29301895 C14.4877137,6.61840842 14.1764716,6.92560842 13.7096084,7.16880842 L13.7096084,7.16880842 Z M13.7096084,8.80316632 C12.9887663,9.14068211 12.1992084,9.30371368 11.4042611,9.27946105 C11.2149558,9.27946105 11.0323874,9.27205053 10.8531874,9.25655579 C10.2751663,8.97091368 9.65066105,8.79306105 9.00864,8.73108211 C8.66640842,8.53436632 8.29857684,8.22110316 8.29857684,7.80880842 L8.29857684,7.44501895 C9.12181895,8.10051368 10.3843032,8.33832421 11.4116716,8.33832421 C12.43904,8.33832421 13.7015242,8.10253474 14.5247663,7.45108211 L14.5247663,7.61411368 L14.4991663,7.63365053 C14.5106189,7.66733474 14.5193768,7.70236632 14.5247663,7.73672421 L14.5247663,7.93141895 L14.5288084,7.93141895 C14.4681768,8.32417684 14.0403874,8.63002947 13.7096084,8.80316632 L13.7096084,8.80316632 Z M14.5288084,9.16156632 L14.5032084,9.18042947 C14.5146611,9.21411368 14.5227453,9.24847158 14.5288084,9.28350316 L14.5288084,9.47819789 C14.4681768,9.87162947 14.0403874,10.1768084 13.7096084,10.3499453 C13.1908716,10.6032505 12.6290189,10.7581979 12.0536926,10.8053558 L12.0658189,10.7972716 C12.0530189,10.4941137 11.9438821,10.2017347 11.7539032,9.96459789 C12.7112084,9.91811368 13.7931453,9.66885053 14.5288084,9.08544 L14.5288084,9.16156632 Z M14.5288084,10.7043032 L14.5032084,10.7231663 C14.5146611,10.7568505 14.5227453,10.7912084 14.5288084,10.8269137 L14.5288084,11.0209347 C14.4681768,11.4143663 14.0403874,11.7195453 13.7096084,11.8926821 C13.1901979,12.1459874 12.6290189,12.3002611 12.0536926,12.3480926 L12.0577347,12.3400084 L12.0577347,11.4904926 C12.9119663,11.4103242 13.8652295,11.1570189 14.5288084,10.6322189 L14.5288084,10.7043032 Z M11.3746189,10.9333558 C11.3261137,11.2587453 11.0222821,11.5659453 10.5554189,11.8091453 C9.83929263,12.1493558 9.05377684,12.3164295 8.26152421,12.2975663 C7.47196632,12.3150821 6.68914526,12.1480084 5.97571368,11.8091453 C5.46573474,11.5423663 5.14842947,11.2001347 5.14842947,10.8363453 C5.14842947,10.4725558 5.46371368,10.1357137 5.97571368,9.86354526 C6.69049263,9.52872421 7.47264,9.36569263 8.26152421,9.38657684 C9.05108211,9.36973474 9.83457684,9.53680842 10.5480084,9.87499789 C11.0573137,10.1417768 11.3746189,10.4840084 11.3746189,10.8477979 L11.3746189,10.9333558 Z M11.3746189,12.2544505 L11.3496926,12.2739874 C11.3604716,12.3076716 11.3692295,12.3420295 11.3746189,12.3770611 L11.3746189,12.5717558 L11.3631663,12.5737768 C11.3025347,12.9665347 10.8747453,13.2723874 10.5439663,13.4455242 C9.83120842,13.78304 9.04973474,13.94944 8.26152421,13.9319242 C7.47196632,13.9480926 6.68914526,13.7796716 5.97571368,13.4394611 C5.60990316,13.2508295 5.14842947,12.9139874 5.14842947,12.4531874 L5.14842947,12.09344 C5.30741895,12.2194189 5.47853474,12.3292295 5.65840842,12.4221979 C6.47019789,12.8115874 7.36148211,13.0056084 8.26152421,12.9880926 C9.16493474,13.0035874 10.0595874,12.8061979 10.8727242,12.4120926 C11.0499032,12.3211453 11.2176505,12.2140295 11.3746189,12.0914189 L11.3746189,12.2544505 Z M11.3746189,13.8093137 L11.3496926,13.8288505 C11.3604716,13.8625347 11.3692295,13.8968926 11.3746189,13.9319242 L11.3746189,14.0585768 L11.3685558,14.0504926 C11.3476716,14.4728926 10.8922611,14.8016505 10.5439663,14.9828716 C9.83188211,15.3230821 9.05040842,15.4928505 8.26152421,15.4787032 C7.47264,15.49824 6.68981895,15.3325137 5.97571368,14.9963453 C5.60990316,14.80704 5.14842947,14.4708716 5.14842947,14.0093979 L5.14842947,13.7291453 C5.30741895,13.8544505 5.47853474,13.9642611 5.65840842,14.0565558 C6.47019789,14.4459453 7.36148211,14.6392926 8.26152421,14.6224505 C9.16426105,14.6399663 10.0589137,14.4459453 10.8727242,14.0545347 C11.0499032,13.9635874 11.2176505,13.8557979 11.3746189,13.7331874 L11.3746189,13.8093137 Z M4.85470316,9.84602947 C3.94590316,9.90261895 2.94009263,9.75845053 2.17950316,9.36973474 C1.81369263,9.18042947 1.35289263,8.84426105 1.35289263,8.38278737 L1.35289263,8.11061895 C2.17546105,8.76611368 3.43861895,9.00392421 4.46598737,9.00392421 C5.49335579,9.00392421 6.75584,8.76813474 7.57840842,8.11600842 L7.57840842,8.19011368 L7.55348211,8.20965053 C7.56426105,8.24333474 7.57301895,8.27769263 7.57840842,8.31272421 L7.57840842,8.50741895 C7.56560842,8.58826105 7.53866105,8.66708211 7.49891368,8.73916632 L7.48948211,8.73714526 C6.84746105,8.79845053 6.22295579,8.97697684 5.64493474,9.26194526 C5.34851368,9.40813474 5.08106105,9.60619789 4.85470316,9.84602947 L4.85470316,9.84602947 Z M4.45790316,10.8424084 L4.45790316,11.4669137 C3.67440842,11.4817347 2.89765053,11.3153347 2.18893474,10.9805137 C1.82312421,10.7858189 1.35491368,10.45504 1.36232421,9.99356632 L1.36232421,9.66548211 C2.17007158,10.3128926 3.40762947,10.5581137 4.48889263,10.5560926 C4.46800842,10.6497347 4.45790316,10.7460716 4.45790316,10.8424084 L4.45790316,10.8424084 Z M4.45790316,12.15744 L4.45790316,12.9005137 C3.67440842,12.9153347 2.89765053,12.7482611 2.18893474,12.4120926 C1.82312421,12.2234611 1.36232421,11.8866189 1.36232421,11.4258189 L1.36232421,11.2627874 C2.16400842,11.9027874 3.39348211,12.1554189 4.45790316,12.1554189 L4.45790316,12.15744 Z M1.37377684,6.84746105 L1.37377684,6.57731368 C2.19701895,7.23482947 3.46421895,7.47061895 4.48754526,7.47061895 C5.51087158,7.47061895 6.76931368,7.23482947 7.59996632,6.58337684 L7.59996632,6.65478737 L7.57504,6.67499789 C7.58581895,6.70800842 7.59457684,6.74304 7.59996632,6.77739789 L7.59996632,6.97209263 C7.54000842,7.36148211 7.11221895,7.67272421 6.78076632,7.84384 C6.06733474,8.18270316 5.28451368,8.34977684 4.49495579,8.33226105 C3.69798737,8.35045053 2.90842947,8.18000842 2.18893474,7.83642947 C1.82312421,7.64173474 1.35491368,7.31095579 1.36232421,6.84948211 L1.37377684,6.84746105 Z M7.59255579,5.22522947 L7.59255579,5.41992421 C7.53192421,5.81268211 7.10413474,6.11786105 6.77335579,6.29099789 C6.05992421,6.62986105 5.27642947,6.79693474 4.48754526,6.77941895 C3.69731368,6.79693474 2.91449263,6.62986105 2.20106105,6.29099789 C1.83525053,6.10236632 1.37377684,5.76552421 1.37377684,5.30472421 L1.36636632,5.29529263 L1.36636632,5.02110316 C2.18893474,5.67659789 3.45209263,5.91373474 4.47946105,5.91373474 C5.50682947,5.91373474 6.76931368,5.67861895 7.59255579,5.02649263 L7.59255579,5.10261895 L7.56695579,5.12215579 C7.57840842,5.15584 7.58649263,5.19019789 7.59255579,5.22522947 L7.59255579,5.22522947 Z M1.36232421,3.38876632 C2.18556632,4.04426105 3.45815579,4.28139789 4.47541895,4.28139789 C5.49335579,4.28139789 6.75786105,4.05571368 7.59996632,3.41167158 L7.59996632,3.57537684 L7.57504,3.59491368 C7.58581895,3.62859789 7.59457684,3.66295579 7.59996632,3.69798737 L7.59996632,3.87247158 L7.57840842,3.87651368 C7.51845053,4.26994526 7.09066105,4.57512421 6.75988211,4.74826105 C6.04645053,5.08645053 5.26430316,5.25285053 4.47541895,5.23466105 C3.68518737,5.25015579 2.90236632,5.07971368 2.18893474,4.73882947 C1.82312421,4.55019789 1.36232421,4.21335579 1.36232421,3.75255579 L1.36232421,3.38876632 Z M2.18893474,1.17773474 C2.90304,0.839545263 3.68586105,0.672471579 4.47541895,0.689987368 C5.26834526,0.667755789 6.05520842,0.831461053 6.77335579,1.16830316 C7.28468211,1.44114526 7.59996632,1.78337684 7.59996632,2.14110316 L7.59996632,2.23474526 L7.58042947,2.23676632 C7.53192421,2.56148211 7.22674526,2.86868211 6.75988211,3.11390316 C6.04645053,3.45141895 5.26430316,3.61781895 4.47541895,3.60030316 C3.68586105,3.61849263 2.90304,3.45209263 2.18893474,3.11390316 C1.67760842,2.84173474 1.36232421,2.49546105 1.36232421,2.14110316 C1.36232421,1.78741895 1.67962947,1.44451368 2.18893474,1.17773474 L2.18893474,1.17773474 Z M15.2132716,7.69832421 L15.2132716,6.33613474 C15.2954611,5.54186105 14.6689347,4.96047158 14.0228716,4.62362947 C13.2110821,4.23491368 12.3197979,4.04021895 11.4197558,4.05773474 C10.5197137,4.04021895 9.62775579,4.23491368 8.81596632,4.62362947 C8.62194526,4.72333474 8.43870316,4.84325053 8.26960842,4.98202947 L8.26960842,3.90817684 C8.27836632,3.81925053 8.27836632,3.73032421 8.26960842,3.64139789 L8.26960842,2.27920842 C8.35112421,1.48560842 7.72459789,0.903545263 7.07853474,0.567376842 C6.26741895,0.177987368 5.37546105,-0.0160336842 4.47541895,0.000808421053 C3.57537684,-0.0160336842 2.68409263,0.177987368 1.87230316,0.567376842 C1.13125053,0.952050526 0.673818947,1.50918737 0.673818947,2.14110316 L0.673818947,11.4473768 C0.673818947,12.0833347 1.13125053,12.6478821 1.87230316,13.0251453 C2.68207158,13.4138611 3.57133474,13.6078821 4.46935579,13.5917137 L4.46935579,14.1751242 C4.53605053,14.7470821 4.97731368,15.2469558 5.65840842,15.6013137 C6.47019789,15.9907032 7.36148211,16.1847242 8.26152421,16.1672084 C9.15887158,16.1813558 10.0467874,15.9866611 10.8552084,15.5972716 C11.5962611,15.2119242 12.0536926,14.6554611 12.0536926,14.0195032 C12.0557137,13.97504 12.0557137,13.9299032 12.0536926,13.88544 L12.0536926,13.0365979 C12.7381558,12.9860716 13.4064505,12.8048505 14.0228716,12.5037137 C14.6824084,12.1554189 15.1277137,11.6750821 15.2132716,11.1105347 L15.2132716,11.0579874 C15.2227032,10.9697347 15.2227032,10.8801347 15.2132716,10.7912084 L15.2132716,10.7837979 L15.2132716,9.50918737 C15.2227032,9.42093474 15.2227032,9.33133474 15.2132716,9.24308211 L15.2132716,7.96442947 C15.2227032,7.87617684 15.2227032,7.78657684 15.2132716,7.69832421 L15.2132716,7.69832421 Z" id="Fill-1"></path>
                            </g>
                        </g>
                    </g>
                </g>
            </g>
        </g>
    </g>
</svg>