<svg xmlns="http://www.w3.org/2000/svg" width="24" height="24" viewBox="0 0 24 24">
    <path fill="#101F51" fill-rule="nonzero" d="M15.269 18.823v3.6c0 .278-.102.52-.306.723a.988.988 0 0 1-.723.305h-4.114a.988.988 0 0 1-.723-.305.988.988 0 0 1-.306-.723v-3.6c0-.279.102-.52.306-.723a.988.988 0 0 1 .723-.306h4.114c.279 0 .52.102.723.306a.988.988 0 0 1 .306.723zM15.75 1.85l-.45 12.343c-.011.279-.12.52-.33.723a1.015 1.015 0 0 1-.731.306h-4.114c-.279 0-.523-.102-.732-.306a1.035 1.035 0 0 1-.329-.723l-.45-12.343a.946.946 0 0 1 .281-.723.962.962 0 0 1 .715-.305h5.143c.279 0 .517.102.715.305a.946.946 0 0 1 .282.723z"/>
</svg>
