<svg xmlns="http://www.w3.org/2000/svg" width="48" height="48" viewBox="0 0 48 48">
    <g fill="none" fill-rule="evenodd">
        <path fill="#EDF2F8" d="M48 7v24.04a8 8 0 0 1-8 8H21.927L14.344 45v-5.96H8V15a8 8 0 0 1 8-8h32z"/>
        <path stroke="#0E5BA8" stroke-width="2" d="M43 3v24.04a8 8 0 0 1-8 8H16.927L9.344 41v-5.96H3V11a8 8 0 0 1 8-8h32z"/>
        <g fill="#0E5BA8" fill-rule="nonzero" stroke="#0E5BA8">
            <path d="M23.318 23.586l-3.183 3.181c-.472.473-1.1.733-1.767.733-.667 0-1.295-.26-1.768-.733l-.707-.706a2.503 2.503 0 0 1 0-3.536l4.596-4.596a2.484 2.484 0 0 1 1.768-.732c.668 0 1.296.26 1.768.732l.707.707a.5.5 0 1 0 .707-.707l-.707-.707a3.477 3.477 0 0 0-2.474-1.026c-.935 0-1.814.365-2.475 1.026l-4.597 4.596a3.504 3.504 0 0 0 0 4.95l.707.706a3.476 3.476 0 0 0 2.475 1.026c.935 0 1.814-.364 2.475-1.026l3.182-3.181a.5.5 0 1 0-.707-.707z"/>
            <path d="M32.692 11.732l-.707-.707A3.477 3.477 0 0 0 29.51 10c-.935 0-1.814.364-2.474 1.025l-3.183 3.182a.5.5 0 1 0 .707.707l3.183-3.182A2.484 2.484 0 0 1 29.51 11c.668 0 1.296.26 1.768.732l.707.708c.472.472.732 1.1.732 1.768 0 .667-.26 1.295-.732 1.767l-4.596 4.596c-.472.473-1.1.733-1.768.733-.668 0-1.295-.26-1.767-.733a.501.501 0 0 0-.708.707 3.475 3.475 0 0 0 2.475 1.026c.935 0 1.814-.364 2.475-1.026l4.596-4.596a3.476 3.476 0 0 0 1.025-2.474c0-.935-.364-1.814-1.025-2.475z"/>
        </g>
    </g>
</svg>
