<svg xmlns="http://www.w3.org/2000/svg" width="24" height="24" viewBox="0 0 24 24">
    <path fill="#101F51" fill-rule="nonzero" d="M18.857 14.429v4.285c0 1.063-.377 1.971-1.132 2.726-.754.754-1.663 1.131-2.725 1.131H3.857c-1.062 0-1.97-.377-2.725-1.131C.377 20.685 0 19.777 0 18.714V7.571c0-1.062.377-1.97 1.132-2.725.754-.754 1.663-1.132 2.725-1.132h9.429c.125 0 .227.04.308.12.08.081.12.184.12.309V5c0 .125-.04.228-.12.308a.417.417 0 0 1-.308.12H3.857c-.59 0-1.094.21-1.513.63-.42.42-.63.924-.63 1.513v11.143c0 .59.21 1.094.63 1.514.42.42.924.63 1.513.63H15c.59 0 1.094-.21 1.513-.63.42-.42.63-.924.63-1.514V14.43c0-.125.04-.228.12-.308.08-.08.183-.121.308-.121h.858c.125 0 .227.04.308.12.08.08.12.184.12.309zM24 2.857v6.857a.824.824 0 0 1-.254.603.824.824 0 0 1-.603.254.824.824 0 0 1-.603-.254L20.183 7.96l-8.732 8.732a.423.423 0 0 1-.616 0l-1.527-1.527a.423.423 0 0 1 0-.616l8.732-8.732-2.357-2.357a.824.824 0 0 1-.254-.603c0-.232.084-.433.254-.603.17-.17.37-.254.603-.254h6.857c.232 0 .433.085.603.254.17.17.254.371.254.603z"/>
</svg>
