<svg xmlns="http://www.w3.org/2000/svg" width="24" height="24" viewBox="0 0 24 24">
    <path fill="#FFF" fill-rule="nonzero" d="M23.318 3.67L12.303.056a.837.837 0 0 0-.606 0L.682 3.669A.978.978 0 0 0 0 4.604V19.08c0 .43.278.808.682.935l11.015 3.612c.1.026.202.05.303.05.101 0 .202-.024.303-.05l11.015-3.612A.978.978 0 0 0 24 19.08V4.604a.978.978 0 0 0-.682-.935zM12 2.001l7.882 2.602L12 7.181l-2.45-.808 1.717-.632c.506-.177.758-.758.581-1.263-.176-.505-.757-.758-1.263-.581L6.543 5.362l-2.425-.808L12 2.002zM1.945 5.943l3.562 1.162v8.034c0 .53.43.985.986.985a.97.97 0 0 0 .985-.985V7.762l3.562 1.162v12.404l-9.095-2.98V5.942zm16.548 13.592v-5.078a.986.986 0 0 0-1.97 0v5.71l-3.563 1.161V8.924l9.07-2.98v12.403l-3.537 1.188z"/>
</svg>
