<svg xmlns="http://www.w3.org/2000/svg" width="24" height="24" viewBox="0 0 24 24">
    <path fill="#00a7db" fill-rule="nonzero" d="M15.96 10.227c0-1.71-.607-3.17-1.821-4.385-1.215-1.215-2.677-1.822-4.385-1.822-1.709 0-3.17.607-4.385 1.822-1.215 1.214-1.822 2.676-1.822 4.385 0 1.708.607 3.17 1.822 4.385 1.214 1.214 2.676 1.821 4.385 1.821 1.708 0 3.17-.607 4.385-1.821 1.214-1.215 1.822-2.677 1.822-4.385zm7.094 11.527c0 .48-.175.896-.526 1.247a1.704 1.704 0 0 1-1.247.526c-.499 0-.915-.175-1.247-.526l-4.752-4.739c-1.654 1.146-3.496 1.718-5.528 1.718a9.584 9.584 0 0 1-3.79-.769 9.752 9.752 0 0 1-3.117-2.078A9.752 9.752 0 0 1 .77 14.016 9.584 9.584 0 0 1 0 10.226c0-1.32.256-2.583.769-3.789A9.752 9.752 0 0 1 2.847 3.32a9.752 9.752 0 0 1 3.117-2.078 9.584 9.584 0 0 1 3.79-.77c1.32 0 2.584.257 3.789.77A9.752 9.752 0 0 1 16.66 3.32a9.752 9.752 0 0 1 2.078 3.117 9.584 9.584 0 0 1 .77 3.79c0 2.032-.573 3.874-1.719 5.528l4.753 4.752c.341.342.512.757.512 1.247z"/>
</svg>
