<?xml version="1.0" encoding="UTF-8"?>
<svg width="32px" height="32px" viewBox="0 0 32 32" version="1.1" xmlns="http://www.w3.org/2000/svg" xmlns:xlink="http://www.w3.org/1999/xlink">
    <!-- Generator: Sketch 55 (78076) - https://sketchapp.com -->
    <title>Element/Button/Dropdown 2</title>
    <desc>Created with Sketch.</desc>
    <g id="Desktop" stroke="none" stroke-width="1" fill="none" fill-rule="evenodd">
        <g id="[Desktop]-CPC---Admin---Dashboard---Modal" transform="translate(-456.000000, -32.000000)">
            <g id="Group-4" transform="translate(240.000000, 0.000000)">
                <g id="Stacked-Group" transform="translate(184.000000, 32.000000)">
                    <g id="Element/Button/Dropdown-3" transform="translate(32.000000, 0.000000)">
                        <g id="Element/Button/Dropdown-2">
                            <g id="Element/Button/Dropdown">
                                <g id="Element/Button/Selector">
                                    <circle id="div" stroke="#DF0036" fill="#DF0036" cx="16" cy="16" r="15.5"></circle>
                                    <g id="Icon/User" transform="translate(8.000000, 8.000000)" fill="#FFFFFF" fill-rule="nonzero">
                                        <path d="M14.1473684,6.73684211 L15.4947368,6.73684211 C15.8668024,6.73684211 16.1684211,7.0384608 16.1684211,7.41052632 C16.1684211,7.78259183 15.8668024,8.08421053 15.4947368,8.08421053 L14.1473684,8.08421053 L14.1473684,9.43157895 C14.1473684,9.80364446 13.8457497,10.1052632 13.4736842,10.1052632 C13.1016187,10.1052632 12.8,9.80364446 12.8,9.43157895 L12.8,8.08421053 L11.4526316,8.08421053 C11.0805661,8.08421053 10.7789474,7.78259183 10.7789474,7.41052632 C10.7789474,7.0384608 11.0805661,6.73684211 11.4526316,6.73684211 L12.8,6.73684211 L12.8,5.38947368 C12.8,5.01740817 13.1016187,4.71578947 13.4736842,4.71578947 C13.8457497,4.71578947 14.1473684,5.01740817 14.1473684,5.38947368 L14.1473684,6.73684211 Z M11.4526316,14.1473684 C11.4526316,14.5194339 11.1510129,14.8210526 10.7789474,14.8210526 C10.4068819,14.8210526 10.1052632,14.5194339 10.1052632,14.1473684 L10.1052632,12.8 C10.1052632,11.6838035 9.20040707,10.7789474 8.08421053,10.7789474 L3.36842105,10.7789474 C2.25222451,10.7789474 1.34736842,11.6838035 1.34736842,12.8 L1.34736842,14.1473684 C1.34736842,14.5194339 1.04574973,14.8210526 0.673684211,14.8210526 C0.301618695,14.8210526 0,14.5194339 0,14.1473684 L0,12.8 C0,10.9396724 1.50809347,9.43157895 3.36842105,9.43157895 L8.08421053,9.43157895 C9.9445381,9.43157895 11.4526316,10.9396724 11.4526316,12.8 L11.4526316,14.1473684 Z M5.72631579,8.08421053 C3.86598821,8.08421053 2.35789474,6.57611705 2.35789474,4.71578947 C2.35789474,2.8554619 3.86598821,1.34736842 5.72631579,1.34736842 C7.58664337,1.34736842 9.09473684,2.8554619 9.09473684,4.71578947 C9.09473684,6.57611705 7.58664337,8.08421053 5.72631579,8.08421053 Z M5.72631579,6.73684211 C6.84251234,6.73684211 7.74736842,5.83198602 7.74736842,4.71578947 C7.74736842,3.59959293 6.84251234,2.69473684 5.72631579,2.69473684 C4.61011924,2.69473684 3.70526316,3.59959293 3.70526316,4.71578947 C3.70526316,5.83198602 4.61011924,6.73684211 5.72631579,6.73684211 Z" id="Combined-Shape"></path>
                                    </g>
                                </g>
                            </g>
                        </g>
                    </g>
                </g>
            </g>
        </g>
    </g>
</svg>