<svg xmlns="http://www.w3.org/2000/svg" width="16" height="16" viewBox="0 0 16 16">
    <g fill="#2390F9" fill-rule="nonzero">
        <path d="M3 4.5v10c0 .85.65 1.5 1.5 1.5h10c.85 0 1.5-.65 1.5-1.5v-10c0-.85-.65-1.5-1.5-1.5h-10C3.65 3 3 3.65 3 4.5zm12 0v10c0 .3-.2.5-.5.5h-10c-.3 0-.5-.2-.5-.5v-10c0-.3.2-.5.5-.5h10c.3 0 .5.2.5.5z"/>
        <path d="M1.5 13H2v-1h-.5c-.3 0-.5-.2-.5-.5v-10c0-.3.2-.5.5-.5h10c.3 0 .5.2.5.5V2h1v-.5c0-.85-.65-1.5-1.5-1.5h-10C.65 0 0 .65 0 1.5v10c0 .85.65 1.5 1.5 1.5z"/>
    </g>
</svg>
