<?xml version="1.0" encoding="UTF-8"?>
<svg width="26px" height="26px" viewBox="0 0 26 26" version="1.1" xmlns="http://www.w3.org/2000/svg" xmlns:xlink="http://www.w3.org/1999/xlink">
    <!-- Generator: Sketch 55 (78076) - https://sketchapp.com -->
    <title>Icon/Feather/maximize-2 Copy 8</title>
    <desc>Created with Sketch.</desc>
    <defs>
        <path d="M5,23.232233 L11.6161165,16.6161165 C12.1042719,16.1279612 12.8957281,16.1279612 13.3838835,16.6161165 C13.8720388,17.1042719 13.8720388,17.8957281 13.3838835,18.3838835 L6.76776695,25 L11.25,25 C11.9403559,25 12.5,25.5596441 12.5,26.25 C12.5,26.9403559 11.9403559,27.5 11.25,27.5 L3.75,27.5 C3.05964406,27.5 2.5,26.9403559 2.5,26.25 L2.5,18.75 C2.5,18.0596441 3.05964406,17.5 3.75,17.5 C4.44035594,17.5 5,18.0596441 5,18.75 L5,23.232233 Z M23.232233,5 L18.75,5 C18.0596441,5 17.5,4.44035594 17.5,3.75 C17.5,3.05964406 18.0596441,2.5 18.75,2.5 L26.25,2.5 C26.9403559,2.5 27.5,3.05964406 27.5,3.75 L27.5,11.25 C27.5,11.9403559 26.9403559,12.5 26.25,12.5 C25.5596441,12.5 25,11.9403559 25,11.25 L25,6.76776695 L18.3838835,13.3838835 C17.8957281,13.8720388 17.1042719,13.8720388 16.6161165,13.3838835 C16.1279612,12.8957281 16.1279612,12.1042719 16.6161165,11.6161165 L23.232233,5 Z" id="path-1"></path>
    </defs>
    <g id="Page-1" stroke="none" stroke-width="1" fill="none" fill-rule="evenodd">
        <g id="Jardin-maritime" transform="translate(-1238.000000, -4823.000000)">
            <g id="Group-18" transform="translate(156.000000, 3776.000000)">
                <g id="Group-14-Copy-2" transform="translate(766.000000, 1024.000000)">
                    <g id="Icon/Feather/maximize-2" transform="translate(314.000000, 21.000000)">
                        <mask id="mask-2" fill="white">
                            <use xlink:href="#path-1"></use>
                        </mask>
                        <use id="Combined-Shape" fill="#000000" fill-rule="nonzero" xlink:href="#path-1"></use>
                        <g id="Color/Neutral/Darkest" mask="url(#mask-2)" fill="#FFFFFF" fill-rule="nonzero">
                            <rect id="Rectangle" x="0" y="0" width="30" height="30"></rect>
                        </g>
                    </g>
                </g>
            </g>
        </g>
    </g>
</svg>